<svg width="28" height="28" viewBox="0 0 28 28" fill="none" xmlns="http://www.w3.org/2000/svg">
<g clip-path="url(#clip0_255_22069)">
<path d="M13.8005 13.4877C15.6534 13.4877 17.258 12.8231 18.569 11.5119C19.88 10.2009 20.5446 8.5968 20.5446 6.74363C20.5446 4.89109 19.88 3.28679 18.5688 1.97536C17.2575 0.664579 15.6532 0 13.8005 0C11.9473 0 10.3432 0.664579 9.0322 1.97558C7.72119 3.28658 7.0564 4.89088 7.0564 6.74363C7.0564 8.5968 7.72119 10.2011 9.03241 11.5121C10.3436 12.8229 11.9479 13.4877 13.8005 13.4877Z" fill="white"/>
<path d="M25.6008 21.5306C25.563 20.985 25.4865 20.3899 25.3739 19.7614C25.2603 19.1282 25.114 18.5297 24.9388 17.9826C24.7578 17.4171 24.5117 16.8587 24.2076 16.3236C23.8918 15.7682 23.521 15.2845 23.1048 14.8866C22.6697 14.4702 22.1369 14.1355 21.5208 13.8913C20.9069 13.6484 20.2265 13.5254 19.4987 13.5254C19.2128 13.5254 18.9364 13.6426 18.4026 13.9902C18.074 14.2045 17.6897 14.4523 17.2607 14.7263C16.894 14.96 16.3971 15.179 15.7833 15.3773C15.1845 15.571 14.5766 15.6693 13.9765 15.6693C13.3764 15.6693 12.7687 15.571 12.1693 15.3773C11.5562 15.1792 11.0593 14.9603 10.6929 14.7266C10.268 14.455 9.88348 14.2072 9.55002 13.99C9.01682 13.6424 8.74017 13.5251 8.45435 13.5251C7.72632 13.5251 7.04614 13.6484 6.4324 13.8915C5.81674 14.1353 5.28375 14.47 4.84818 14.8868C4.43225 15.285 4.06119 15.7684 3.74588 16.3236C3.44189 16.8587 3.1958 17.4169 3.01465 17.9828C2.83969 18.5299 2.69336 19.1282 2.57971 19.7614C2.46713 20.389 2.39066 20.9844 2.35284 21.5313C2.31567 22.067 2.29688 22.6231 2.29688 23.1847C2.29688 24.6463 2.76151 25.8296 3.67773 26.7022C4.58264 27.5633 5.78 28.0002 7.23605 28.0002H20.7182C22.1743 28.0002 23.3712 27.5635 24.2763 26.7022C25.1928 25.8302 25.6574 24.6467 25.6574 23.1845C25.6572 22.6203 25.6382 22.0638 25.6008 21.5306Z" fill="white"/>
</g>
<defs>
<clipPath id="clip0_255_22069">
<rect width="28" height="28" fill="white"/>
</clipPath>
</defs>
</svg>
