<svg width="28" height="28" viewBox="0 0 28 28" fill="none" xmlns="http://www.w3.org/2000/svg">
<g clip-path="url(#clip0_255_22034)">
<path d="M20.5625 26.3594H19.7422V24.6094H8.25781V26.3594H7.4375C6.98409 26.3594 6.61719 26.7263 6.61719 27.1797C6.61719 27.6331 6.98409 28 7.4375 28H20.5625C21.0159 28 21.3828 27.6331 21.3828 27.1797C21.3828 26.7263 21.0159 26.3594 20.5625 26.3594Z" fill="white"/>
<path d="M14.1162 6.57924L14 6.34692L13.8887 6.56961C13.6866 6.98578 13.2773 7.01838 13.2719 7.02385L13.0139 7.06229L13.1909 7.23691C13.3852 7.42192 13.4809 7.70093 13.4313 7.97393L13.3904 8.22145L13.6219 8.1013C13.8543 7.98038 14.1383 7.97656 14.3782 8.1013L14.6096 8.22145L14.5672 7.96431C14.5231 7.70077 14.6105 7.43236 14.8003 7.24571L14.9862 7.06229L14.7282 7.02385C14.4638 6.98376 14.2356 6.81795 14.1162 6.57924Z" fill="white"/>
<path d="M27.1797 1.64062H23.006C23.0128 1.36784 23.0234 1.09791 23.0234 0.820312C23.0234 0.366898 22.6565 0 22.2031 0H5.79688C5.34346 0 4.97656 0.366898 4.97656 0.820312C4.97656 1.09791 4.98717 1.36795 4.99401 1.64062H0.820312C0.366898 1.64062 0 2.00752 0 2.46094V4.53895C0 9.11854 3.66789 12.8386 8.18863 13.0792C9.13139 14.376 10.254 15.3387 11.5247 15.8855C11.3383 19.6286 9.35233 22.2211 8.70986 22.9687H19.2888C18.6466 22.2263 16.661 19.6492 16.4746 15.8855C17.7457 15.3389 18.8688 14.3762 19.8116 13.0792C24.3321 12.8385 28 9.11848 28 4.53895V2.46094C28 2.00752 27.6331 1.64062 27.1797 1.64062ZM1.64062 4.53895V3.28125H5.07571C5.32044 6.40659 6.03148 9.14659 7.11829 11.3043C4.02046 10.6068 1.64062 7.84454 1.64062 4.53895ZM17.3069 7.07919L16.2551 8.11497L16.497 9.57135C16.5483 9.87815 16.4217 10.1874 16.1702 10.3692C15.9178 10.5525 15.5862 10.5769 15.3098 10.4342L14 9.75401L12.6902 10.4342C12.4131 10.5751 12.0814 10.5519 11.8299 10.3692C11.5783 10.1874 11.4518 9.8782 11.503 9.57135L11.745 8.11497L10.6932 7.07919C10.4675 6.85688 10.3949 6.52881 10.4889 6.24127C10.585 5.94645 10.8398 5.73016 11.1474 5.68373L12.6069 5.46421L13.2663 4.14482C13.5434 3.58887 14.4567 3.58887 14.7339 4.14482L15.3932 5.46421L16.8527 5.68373C17.1603 5.73021 17.4151 5.9465 17.5112 6.24127C17.6073 6.53685 17.528 6.86131 17.3069 7.07919ZM26.3594 4.53895C26.3594 7.84443 23.9795 10.6067 20.8818 11.3042C21.9685 9.14648 22.6797 6.4067 22.9243 3.28125H26.3594V4.53895Z" fill="white"/>
</g>
<defs>
<clipPath id="clip0_255_22034">
<rect width="28" height="28" fill="white"/>
</clipPath>
</defs>
</svg>
