<svg width="28" height="28" viewBox="0 0 28 28" fill="none" xmlns="http://www.w3.org/2000/svg">
<path d="M23.6652 8.66977H20.1506C18.7294 8.66977 17.573 7.51346 17.573 6.09219V2.57671C17.573 1.15128 16.4194 0 14.9963 0H11.3642C9.92713 0 8.78662 1.16621 8.78662 2.57759V18.3932C8.78662 19.8303 9.95283 20.9708 11.3642 20.9708H23.6652C25.1056 20.9708 26.2429 19.801 26.2429 18.3932V11.2474C26.2428 9.82609 25.0865 8.66977 23.6652 8.66977ZM20.8332 11.8191L17.3186 17.0909C17.0086 17.574 16.2635 17.5739 15.9535 17.0909L14.1962 14.455C13.9449 14.078 14.0467 13.5687 14.4237 13.3174C14.8006 13.0661 15.3099 13.168 15.5613 13.5449L16.636 15.1571L19.4681 10.909C19.7194 10.532 20.2287 10.4302 20.6056 10.6815C20.9827 10.9328 21.0845 11.4422 20.8332 11.8191Z" fill="white"/>
<path d="M3.6313 21.9078V7.12793C2.565 7.43139 1.75732 8.40641 1.75732 9.60675V25.4224C1.75732 26.8436 2.91364 28 4.33491 28H16.636C17.8133 28 18.8081 27.2062 19.1151 26.126H7.84951C5.5236 26.126 3.6313 24.2337 3.6313 21.9078Z" fill="white"/>
<path d="M7.14589 18.3932V3.6134C6.0796 3.91692 5.27197 4.89205 5.27197 6.09222V21.9079C5.27197 23.3291 6.42829 24.4854 7.84956 24.4854H20.1506C21.328 24.4854 22.3227 23.6917 22.6298 22.6115H11.3642C9.03825 22.6115 7.14589 20.7192 7.14589 18.3932Z" fill="white"/>
<path d="M19.2136 6.09223C19.2136 6.60886 19.6339 7.02919 20.1506 7.02919H23.6652C24.463 7.02919 25.2098 7.25193 25.8467 7.63841C25.5958 7.04374 25.2302 6.49719 24.7601 6.0271L20.2157 1.48273C19.7458 1.01275 19.1994 0.647269 18.605 0.396362C18.9911 1.03303 19.2137 1.77935 19.2137 2.57675V6.09223H19.2136Z" fill="white"/>
</svg>
